<svg xmlns="http://www.w3.org/2000/svg" viewBox="0 0 407.36 462.44">
  <defs>
    <style>
      .cls-1 {
        fill: #f5f5f5;
      }

      .cls-2 {
        fill: #E8505B;
      }

      .cls-3 {
        opacity: 0.6;
      }

      .cls-4 {
        fill: #fff;
      }

      .cls-5 {
        opacity: 0.8;
      }

      .cls-6 {
        fill: #34332E;
      }

      .cls-7 {
        fill: #34332E;
      }

      .cls-8 {
        fill: #e0e0e0;
      }

      .cls-9 {
        fill: none;
        stroke: #fff;
        stroke-miterlimit: 10;
        stroke-width: 0.05px;
      }
    </style>
  </defs>
  <g id="Background_Simple" data-name="Background Simple">
    <path class="cls-1" d="M149.8,278.76l1.48-.6A36.12,36.12,0,0,0,174,248.5a35.41,35.41,0,0,0,.13-5.15,37.91,37.91,0,0,0-18.8-30.46c-6.39-3.65-14.12-5.65-18.73-11.34-6-7.42-4.49-18.09-2.66-27.38s3.32-20-2.72-27.37c-3.79-4.63-9.87-6.9-15.84-7.56-15.82-1.73-31.63,6.89-40.88,19.65s-12.55,29-12,44.71c.8,22,9.28,44.2,25.49,59.37S128.54,285.28,149.8,278.76Z" transform="translate(-44.63 -21.48)"/>
    <circle class="cls-1" cx="149.07" cy="72.52" r="30.95" transform="translate(0.01 179.78) rotate(-76.89)"/>
    <path class="cls-1" d="M406,94.23C395.72,76.32,367.81,60,347,60.85l1.46-.17c-16.85-1.52-34.15,15.39-33.53,32.3.45,12.49,8.47,23.21,15.15,33.77S342.5,150.28,338.1,162c-4.56,12.12-19,19.37-21,32.16-1.41,8.92,4.22,18,12.1,22.38s17.49,4.78,26.35,3c29.69-5.89,54.2-28.84,60.78-58.38C422.19,135,417.16,113.57,406,94.23Z" transform="translate(-44.63 -21.48)"/>
  </g>
  <g id="Smoke">
    <path class="cls-2" d="M176.58,472.35a21.09,21.09,0,0,0-26.92-26.15,22.64,22.64,0,0,0-35.17-19.27c-3.84-7.34-14-10.49-21.36-6.6s-10.4,14.11-6.46,21.4a14.72,14.72,0,0,0-14.76,23.8c-12-5.27-27.67,5.33-27.27,18.39l145.2-.42C188.8,481.56,185.22,472.7,176.58,472.35Z" transform="translate(-44.63 -21.48)"/>
    <path class="cls-2" d="M438.73,472.35a21.09,21.09,0,0,0-26.92-26.15,22.64,22.64,0,0,0-35.17-19.27c-3.85-7.34-14.05-10.49-21.36-6.6s-10.4,14.11-6.46,21.4a14.72,14.72,0,0,0-14.76,23.8c-12-5.27-27.68,4.93-27.28,18l145.21,0C451,481.56,447.37,472.7,438.73,472.35Z" transform="translate(-44.63 -21.48)"/>
    <g>
      <path class="cls-2" d="M296.31,483.5a36.2,36.2,0,0,0-.31-24.11c-1.81-4.86-4.81-9.44-9.21-12.18s-10.34-3.31-14.75-.59a20.93,20.93,0,0,0-25.9-20.35,16.13,16.13,0,0,0-20.32-17.65c2.53-8.27-4.59-16.56-13.07-18.25h-2.82s-17.82-.44-20,0c-8.48,1.69-15.6,10-13.07,18.25a16.13,16.13,0,0,0-20.32,17.65,20.93,20.93,0,0,0-25.9,20.35c-4.41-2.72-10.34-2.15-14.75.59s-7.4,7.32-9.21,12.18a36.2,36.2,0,0,0-.31,24.11Z" transform="translate(-44.63 -21.48)"/>
      <g class="cls-3">
        <path class="cls-4" d="M296.31,483.5a36.2,36.2,0,0,0-.31-24.11c-1.81-4.86-4.81-9.44-9.21-12.18s-10.34-3.31-14.75-.59a20.93,20.93,0,0,0-25.9-20.35,16.13,16.13,0,0,0-20.32-17.65c2.53-8.27-4.59-16.56-13.07-18.25h-2.82s-17.82-.44-20,0c-8.48,1.69-15.6,10-13.07,18.25a16.13,16.13,0,0,0-20.32,17.65,20.93,20.93,0,0,0-25.9,20.35c-4.41-2.72-10.34-2.15-14.75.59s-7.4,7.32-9.21,12.18a36.2,36.2,0,0,0-.31,24.11Z" transform="translate(-44.63 -21.48)"/>
      </g>
    </g>
    <g>
      <path class="cls-2" d="M388.44,483.5a36.2,36.2,0,0,0-.32-24.11c-1.81-4.86-4.81-9.44-9.21-12.18s-10.34-3.31-14.75-.59a20.92,20.92,0,0,0-25.9-20.35,16.13,16.13,0,0,0-20.32-17.65c2.53-8.27-4.59-16.56-13.07-18.25h-2.81s-17.83-.44-20,0c-8.48,1.69-15.6,10-13.07,18.25a16.13,16.13,0,0,0-20.32,17.65,20.91,20.91,0,0,0-25.89,20.35c-4.41-2.72-10.35-2.15-14.75.59s-7.41,7.32-9.21,12.18a36.14,36.14,0,0,0-.32,24.11Z" transform="translate(-44.63 -21.48)"/>
      <g class="cls-5">
        <path class="cls-4" d="M388.44,483.52a36.2,36.2,0,0,0-.32-24.11c-1.81-4.86-4.81-9.44-9.21-12.18s-10.34-3.31-14.75-.59a20.92,20.92,0,0,0-25.9-20.35,16.13,16.13,0,0,0-20.32-17.65c2.53-8.27-4.59-16.56-13.07-18.25h-2.81s-17.83-.44-20,0c-8.48,1.69-15.6,10-13.07,18.25a16.13,16.13,0,0,0-20.32,17.65,20.91,20.91,0,0,0-25.89,20.35c-4.41-2.72-10.35-2.15-14.75.59s-7.41,7.32-9.21,12.18a36.14,36.14,0,0,0-.32,24.11Z" transform="translate(-44.63 -21.48)"/>
      </g>
    </g>
  </g>
  <g id="Rocket">
    <g>
      <g>
        <polygon class="cls-6" points="165.87 362.46 146.66 362.98 146.66 327.27 165.87 326.75 165.87 362.46"/>
        <rect class="cls-6" x="144.47" y="335.54" width="23.85" height="2.77" rx="1.37"/>
        <rect class="cls-6" x="144.47" y="341.11" width="23.85" height="2.77" rx="1.37"/>
        <rect class="cls-6" x="144.47" y="346.68" width="23.85" height="2.77" rx="1.37"/>
        <rect class="cls-6" x="144.47" y="352.24" width="23.85" height="2.77" rx="1.37"/>
        <rect class="cls-6" x="144.47" y="357.81" width="23.85" height="2.77" rx="1.37"/>
        <polygon class="cls-6" points="143.17 369.1 146.66 362.46 165.87 362.46 170.07 369.1 143.17 369.1"/>
        <path class="cls-7" d="M212,357c0,.15-4.91.26-11,.26s-10.95-.11-10.95-.26,4.9-.26,10.95-.26S212,356.88,212,357Z" transform="translate(-44.63 -21.48)"/>
        <path class="cls-7" d="M211.55,359.8c0,.14-4.86.26-10.84.26s-10.84-.12-10.84-.26,4.85-.27,10.84-.27S211.55,359.65,211.55,359.8Z" transform="translate(-44.63 -21.48)"/>
        <path class="cls-7" d="M212.14,362.59c0,.14-4.95.26-11.06.26s-11.07-.12-11.07-.26,5-.26,11.07-.26S212.14,362.45,212.14,362.59Z" transform="translate(-44.63 -21.48)"/>
        <path class="cls-7" d="M211.07,365.36a104.19,104.19,0,0,1-10.51.26,103.91,103.91,0,0,1-10.5-.26c0-.14,4.7-.26,10.5-.26S211.07,365.22,211.07,365.36Z" transform="translate(-44.63 -21.48)"/>
        <path class="cls-7" d="M211.83,368.21c0,.15-4.81.26-10.75.26s-10.76-.11-10.76-.26,4.81-.26,10.76-.26S211.83,368.07,211.83,368.21Z" transform="translate(-44.63 -21.48)"/>
        <path class="cls-7" d="M212.11,370.93c0,.15-4.88.26-10.9.26s-10.89-.11-10.89-.26,4.88-.26,10.89-.26S212.11,370.79,212.11,370.93Z" transform="translate(-44.63 -21.48)"/>
        <path class="cls-7" d="M211.49,373.73c0,.14-4.6.26-10.28.26s-10.27-.12-10.27-.26a99.46,99.46,0,0,1,10.27-.26A99.58,99.58,0,0,1,211.49,373.73Z" transform="translate(-44.63 -21.48)"/>
        <path class="cls-7" d="M211.66,376.5a99.58,99.58,0,0,1-10.28.26,99.46,99.46,0,0,1-10.27-.26c0-.14,4.6-.26,10.27-.26S211.66,376.36,211.66,376.5Z" transform="translate(-44.63 -21.48)"/>
        <path class="cls-7" d="M211,379.23a101.84,101.84,0,0,1-10.22.26,102,102,0,0,1-10.22-.26,102,102,0,0,1,10.22-.26A101.84,101.84,0,0,1,211,379.23Z" transform="translate(-44.63 -21.48)"/>
        <path class="cls-7" d="M210.92,382.07a95.22,95.22,0,0,1-9.88.26,95.38,95.38,0,0,1-9.88-.26,95.38,95.38,0,0,1,9.88-.26A95.22,95.22,0,0,1,210.92,382.07Z" transform="translate(-44.63 -21.48)"/>
      </g>
      <g>
        <polygon class="cls-6" points="257.94 362.46 238.74 362.98 238.74 327.27 257.94 326.75 257.94 362.46"/>
        <rect class="cls-6" x="236.54" y="335.54" width="23.85" height="2.77" rx="1.37"/>
        <rect class="cls-6" x="236.54" y="341.11" width="23.85" height="2.77" rx="1.37"/>
        <rect class="cls-6" x="236.54" y="346.68" width="23.85" height="2.77" rx="1.37"/>
        <rect class="cls-6" x="236.54" y="352.24" width="23.85" height="2.77" rx="1.37"/>
        <rect class="cls-6" x="236.54" y="357.81" width="23.85" height="2.77" rx="1.37"/>
        <polygon class="cls-6" points="235.25 369.1 238.74 362.46 257.94 362.46 262.15 369.1 235.25 369.1"/>
        <path class="cls-7" d="M304.07,357c0,.15-4.9.26-10.95.26s-10.95-.11-10.95-.26,4.9-.26,10.95-.26S304.07,356.88,304.07,357Z" transform="translate(-44.63 -21.48)"/>
        <path class="cls-7" d="M303.62,359.8c0,.14-4.85.26-10.84.26s-10.84-.12-10.84-.26,4.85-.27,10.84-.27S303.62,359.65,303.62,359.8Z" transform="translate(-44.63 -21.48)"/>
        <path class="cls-7" d="M304.22,362.59c0,.14-5,.26-11.07.26s-11.07-.12-11.07-.26,5-.26,11.07-.26S304.22,362.45,304.22,362.59Z" transform="translate(-44.63 -21.48)"/>
        <path class="cls-7" d="M303.14,365.36a103.91,103.91,0,0,1-10.5.26,103.91,103.91,0,0,1-10.5-.26c0-.14,4.7-.26,10.5-.26S303.14,365.22,303.14,365.36Z" transform="translate(-44.63 -21.48)"/>
        <path class="cls-7" d="M303.91,368.21c0,.15-4.82.26-10.76.26s-10.76-.11-10.76-.26,4.82-.26,10.76-.26S303.91,368.07,303.91,368.21Z" transform="translate(-44.63 -21.48)"/>
        <path class="cls-7" d="M304.18,370.93c0,.15-4.87.26-10.89.26s-10.9-.11-10.9-.26,4.88-.26,10.9-.26S304.18,370.79,304.18,370.93Z" transform="translate(-44.63 -21.48)"/>
        <path class="cls-7" d="M303.56,373.73c0,.14-4.6.26-10.27.26s-10.28-.12-10.28-.26a99.58,99.58,0,0,1,10.28-.26A99.46,99.46,0,0,1,303.56,373.73Z" transform="translate(-44.63 -21.48)"/>
        <path class="cls-7" d="M303.73,376.5a99.46,99.46,0,0,1-10.27.26,99.58,99.58,0,0,1-10.28-.26c0-.14,4.6-.26,10.28-.26S303.73,376.36,303.73,376.5Z" transform="translate(-44.63 -21.48)"/>
        <path class="cls-7" d="M303.05,379.23a101.71,101.71,0,0,1-10.21.26,101.84,101.84,0,0,1-10.22-.26,101.84,101.84,0,0,1,10.22-.26A101.71,101.71,0,0,1,303.05,379.23Z" transform="translate(-44.63 -21.48)"/>
        <path class="cls-7" d="M303,382.07a95.38,95.38,0,0,1-9.88.26,95.22,95.22,0,0,1-9.88-.26,95.22,95.22,0,0,1,9.88-.26A95.38,95.38,0,0,1,303,382.07Z" transform="translate(-44.63 -21.48)"/>
      </g>
      <g>
        <g>
          <g>
            <path class="cls-8" d="M217.51,131.93l.31,177.14H195.41V132.72a35.4,35.4,0,0,1,1.26-9.38L206,89.23c.37-1.34,1.94-1.31,2.38,1.09l8.12,33.24A35.77,35.77,0,0,1,217.51,131.93Z" transform="translate(-44.63 -21.48)"/>
            <path class="cls-2" d="M216.94,153.39c0,.14-4.64.26-10.38.26s-10.39-.12-10.39-.26a101.73,101.73,0,0,1,10.39-.26A101.45,101.45,0,0,1,216.94,153.39Z" transform="translate(-44.63 -21.48)"/>
            <path class="cls-7" d="M217.07,175.58c0,.14-4.79.26-10.7.26s-10.71-.12-10.71-.26a106,106,0,0,1,10.71-.27A105.92,105.92,0,0,1,217.07,175.58Z" transform="translate(-44.63 -21.48)"/>
            <path class="cls-7" d="M200.82,170.93c-.14,0-.26-.63-.26-1.42s.12-1.42.26-1.42.26.64.26,1.42S201,170.93,200.82,170.93Z" transform="translate(-44.63 -21.48)"/>
            <ellipse class="cls-7" cx="158.38" cy="148.03" rx="0.26" ry="1.16"/>
            <path class="cls-7" d="M217.74,232.74c0,.15-4.93.27-11,.27s-11-.12-11-.27,4.93-.26,11-.26S217.74,232.6,217.74,232.74Z" transform="translate(-44.63 -21.48)"/>
            <path class="cls-7" d="M200.92,239.39c-.14,0-.26-.64-.26-1.43s.12-1.43.26-1.43.26.64.26,1.43S201.07,239.39,200.92,239.39Z" transform="translate(-44.63 -21.48)"/>
            <path class="cls-7" d="M202.62,239.65c-.15,0-.26-.67-.26-1.5s.11-1.49.26-1.49.26.67.26,1.49S202.76,239.65,202.62,239.65Z" transform="translate(-44.63 -21.48)"/>
            <path class="cls-7" d="M210.44,288a55.94,55.94,0,0,1-7.56.26,55.82,55.82,0,0,1-7.56-.26,53.93,53.93,0,0,1,7.56-.26A54,54,0,0,1,210.44,288Z" transform="translate(-44.63 -21.48)"/>
          </g>
          <path class="cls-7" d="M217.19,129.62c0,.14-4.82.26-10.77.26s-10.78-.12-10.78-.26,4.83-.26,10.78-.26S217.19,129.48,217.19,129.62Z" transform="translate(-44.63 -21.48)"/>
          <g>
            <path class="cls-7" d="M197.71,131c0-.06.25-.08.39.21a.58.58,0,0,1,0,.55.63.63,0,0,1-1.13-.33.56.56,0,0,1,.26-.48c.27-.17.47,0,.44,0s-.13.11-.19.24-.05.21.09.26.19,0,.21-.17S197.69,131,197.71,131Z" transform="translate(-44.63 -21.48)"/>
            <path class="cls-7" d="M206.55,131c0-.06.25-.08.39.21a.58.58,0,0,1,0,.55.63.63,0,0,1-1.13-.33.56.56,0,0,1,.26-.48c.27-.17.47,0,.44,0s-.13.11-.19.24-.05.21.09.26.19,0,.22-.17S206.53,131,206.55,131Z" transform="translate(-44.63 -21.48)"/>
            <path class="cls-7" d="M215.39,131c0-.06.25-.08.39.21a.58.58,0,0,1,0,.55.6.6,0,0,1-.67.22.61.61,0,0,1-.46-.55.56.56,0,0,1,.26-.48c.28-.17.47,0,.44,0s-.13.11-.19.24,0,.21.09.26.19,0,.22-.17S215.37,131,215.39,131Z" transform="translate(-44.63 -21.48)"/>
          </g>
          <g>
            <path class="cls-7" d="M197.71,177.51c0-.07.25-.09.39.2a.58.58,0,0,1,0,.55.63.63,0,0,1-1.13-.33.57.57,0,0,1,.26-.48c.27-.17.47,0,.44,0s-.13.12-.19.24-.05.22.09.26.19,0,.21-.17S197.69,177.58,197.71,177.51Z" transform="translate(-44.63 -21.48)"/>
            <path class="cls-7" d="M206.55,177.51c0-.07.25-.09.39.2a.58.58,0,0,1,0,.55.63.63,0,0,1-1.13-.33.57.57,0,0,1,.26-.48c.27-.17.47,0,.44,0s-.13.12-.19.24-.05.22.09.26.19,0,.22-.17S206.53,177.58,206.55,177.51Z" transform="translate(-44.63 -21.48)"/>
            <path class="cls-7" d="M215.39,177.51c0-.07.25-.09.39.2a.58.58,0,0,1,0,.55.6.6,0,0,1-.67.22.61.61,0,0,1-.46-.55.57.57,0,0,1,.26-.48c.28-.17.47,0,.44,0s-.13.12-.19.24,0,.22.09.26.19,0,.22-.17S215.37,177.58,215.39,177.51Z" transform="translate(-44.63 -21.48)"/>
          </g>
          <g>
            <path class="cls-7" d="M197.71,228.56c0-.07.25-.09.39.2a.58.58,0,0,1,0,.55.62.62,0,0,1-.68.23.63.63,0,0,1-.45-.56.57.57,0,0,1,.26-.48c.27-.17.47,0,.44,0s-.13.11-.19.23-.05.22.09.26.19,0,.21-.17S197.69,228.63,197.71,228.56Z" transform="translate(-44.63 -21.48)"/>
            <path class="cls-7" d="M206.55,228.56c0-.07.25-.09.39.2a.58.58,0,0,1,0,.55.61.61,0,0,1-.68.23.63.63,0,0,1-.45-.56.57.57,0,0,1,.26-.48c.27-.17.47,0,.44,0s-.13.11-.19.23-.05.22.09.26.19,0,.22-.17S206.53,228.63,206.55,228.56Z" transform="translate(-44.63 -21.48)"/>
            <path class="cls-7" d="M215.39,228.56c0-.07.25-.09.39.2a.58.58,0,0,1,0,.55.6.6,0,0,1-.67.23.63.63,0,0,1-.46-.56.57.57,0,0,1,.26-.48c.28-.17.47,0,.44,0s-.13.11-.19.23,0,.22.09.26.19,0,.22-.17S215.37,228.63,215.39,228.56Z" transform="translate(-44.63 -21.48)"/>
          </g>
          <g>
            <path class="cls-7" d="M197.71,284.22c0-.07.25-.09.39.2a.58.58,0,0,1,0,.55.63.63,0,0,1-1.13-.33.57.57,0,0,1,.26-.48c.27-.17.47,0,.44,0s-.13.12-.19.24-.05.22.09.26.19,0,.21-.17S197.69,284.29,197.71,284.22Z" transform="translate(-44.63 -21.48)"/>
            <path class="cls-7" d="M206.55,284.22c0-.07.25-.09.39.2a.58.58,0,0,1,0,.55.63.63,0,0,1-1.13-.33.57.57,0,0,1,.26-.48c.27-.17.47,0,.44,0s-.13.12-.19.24-.05.22.09.26.19,0,.22-.17S206.53,284.29,206.55,284.22Z" transform="translate(-44.63 -21.48)"/>
          </g>
        </g>
        <g>
          <g>
            <path class="cls-8" d="M278,131.93l-.32,177.14h22.41V132.72a35.82,35.82,0,0,0-1.26-9.38l-9.33-34.11c-.37-1.34-1.94-1.31-2.38,1.09L279,123.56A35.24,35.24,0,0,0,278,131.93Z" transform="translate(-44.63 -21.48)"/>
            <path class="cls-2" d="M278.59,153.39a101.61,101.61,0,0,1,10.38-.26,101.73,101.73,0,0,1,10.39.26c0,.14-4.65.26-10.39.26S278.59,153.53,278.59,153.39Z" transform="translate(-44.63 -21.48)"/>
            <path class="cls-7" d="M278.46,175.58a106,106,0,0,1,10.71-.27,105.92,105.92,0,0,1,10.7.27c0,.14-4.79.26-10.7.26S278.46,175.72,278.46,175.58Z" transform="translate(-44.63 -21.48)"/>
            <path class="cls-7" d="M294.71,170.93c-.14,0-.26-.63-.26-1.42s.12-1.42.26-1.42.26.64.26,1.42S294.86,170.93,294.71,170.93Z" transform="translate(-44.63 -21.48)"/>
            <ellipse class="cls-7" cx="247.89" cy="148.03" rx="0.26" ry="1.16"/>
            <path class="cls-7" d="M277.79,232.74c0-.14,4.94-.26,11-.26s11,.12,11,.26-4.93.27-11,.27S277.79,232.89,277.79,232.74Z" transform="translate(-44.63 -21.48)"/>
            <path class="cls-7" d="M294.61,239.39c-.14,0-.26-.64-.26-1.43s.12-1.43.26-1.43.26.64.26,1.43S294.75,239.39,294.61,239.39Z" transform="translate(-44.63 -21.48)"/>
            <path class="cls-7" d="M292.92,239.65c-.15,0-.26-.67-.26-1.5s.11-1.49.26-1.49.26.67.26,1.49S293.06,239.65,292.92,239.65Z" transform="translate(-44.63 -21.48)"/>
            <path class="cls-7" d="M285.09,288a54,54,0,0,1,7.56-.26,54.13,54.13,0,0,1,7.57.26,56,56,0,0,1-7.57.26A55.94,55.94,0,0,1,285.09,288Z" transform="translate(-44.63 -21.48)"/>
          </g>
          <path class="cls-7" d="M278.34,129.62c0-.14,4.83-.26,10.78-.26s10.77.12,10.77.26-4.82.26-10.77.26S278.34,129.76,278.34,129.62Z" transform="translate(-44.63 -21.48)"/>
          <g>
            <path class="cls-7" d="M297.82,131c0,.07-.05.17,0,.31s.08.2.21.17.16-.11.1-.26-.18-.17-.2-.24.17-.2.44,0a.56.56,0,0,1,.26.48.6.6,0,0,1-.45.55.61.61,0,0,1-.68-.22.58.58,0,0,1,0-.55C297.57,130.89,297.82,130.91,297.82,131Z" transform="translate(-44.63 -21.48)"/>
            <path class="cls-7" d="M289,131c0,.07-.05.17,0,.31s.07.2.21.17.16-.11.09-.26-.17-.17-.19-.24.17-.2.44,0a.56.56,0,0,1,.26.48.6.6,0,0,1-.45.55.61.61,0,0,1-.68-.22.58.58,0,0,1,0-.55C288.73,130.89,289,130.91,289,131Z" transform="translate(-44.63 -21.48)"/>
            <path class="cls-7" d="M280.14,131c0,.07-.05.17,0,.31s.07.2.21.17.16-.11.09-.26-.17-.17-.19-.24.17-.2.44,0a.56.56,0,0,1,.26.48.63.63,0,0,1-1.13.33.58.58,0,0,1,0-.55C279.89,130.89,280.14,130.91,280.14,131Z" transform="translate(-44.63 -21.48)"/>
          </g>
          <g>
            <path class="cls-7" d="M297.82,177.51c0,.07-.05.16,0,.3s.08.21.21.17.16-.11.1-.26-.18-.17-.2-.24.17-.2.44,0a.57.57,0,0,1,.26.48.6.6,0,0,1-.45.55.61.61,0,0,1-.68-.22.58.58,0,0,1,0-.55C297.57,177.42,297.82,177.44,297.82,177.51Z" transform="translate(-44.63 -21.48)"/>
            <path class="cls-7" d="M289,177.51c0,.07-.05.16,0,.3s.07.21.21.17.16-.11.09-.26-.17-.17-.19-.24.17-.2.44,0a.57.57,0,0,1,.26.48.6.6,0,0,1-.45.55.61.61,0,0,1-.68-.22.58.58,0,0,1,0-.55C288.73,177.42,289,177.44,289,177.51Z" transform="translate(-44.63 -21.48)"/>
            <path class="cls-7" d="M280.14,177.51c0,.07-.05.16,0,.3s.07.21.21.17.16-.11.09-.26-.17-.17-.19-.24.17-.2.44,0a.57.57,0,0,1,.26.48.63.63,0,0,1-1.13.33.58.58,0,0,1,0-.55C279.89,177.42,280.14,177.44,280.14,177.51Z" transform="translate(-44.63 -21.48)"/>
          </g>
          <g>
            <path class="cls-7" d="M297.82,228.56c0,.07-.05.16,0,.3s.08.21.21.17.16-.1.1-.26-.18-.16-.2-.23.17-.21.44,0a.57.57,0,0,1,.26.48.63.63,0,0,1-1.13.33.58.58,0,0,1,0-.55C297.57,228.47,297.82,228.49,297.82,228.56Z" transform="translate(-44.63 -21.48)"/>
            <path class="cls-7" d="M289,228.56c0,.07-.05.16,0,.3s.07.21.21.17.16-.1.09-.26-.17-.16-.19-.23.17-.21.44,0a.57.57,0,0,1,.26.48.63.63,0,0,1-1.13.33.58.58,0,0,1,0-.55C288.73,228.47,289,228.49,289,228.56Z" transform="translate(-44.63 -21.48)"/>
            <path class="cls-7" d="M280.14,228.56c0,.07-.05.16,0,.3s.07.21.21.17.16-.1.09-.26-.17-.16-.19-.23.17-.21.44,0a.57.57,0,0,1,.26.48.63.63,0,0,1-.45.56.62.62,0,0,1-.68-.23.58.58,0,0,1,0-.55C279.89,228.47,280.14,228.49,280.14,228.56Z" transform="translate(-44.63 -21.48)"/>
          </g>
          <g>
            <path class="cls-7" d="M297.82,284.22c0,.07-.05.16,0,.3s.08.21.21.17.16-.11.1-.26-.18-.17-.2-.24.17-.2.44,0a.57.57,0,0,1,.26.48.6.6,0,0,1-.45.55.61.61,0,0,1-.68-.22.58.58,0,0,1,0-.55C297.57,284.13,297.82,284.15,297.82,284.22Z" transform="translate(-44.63 -21.48)"/>
            <path class="cls-7" d="M289,284.22c0,.07-.05.16,0,.3s.07.21.21.17.16-.11.09-.26-.17-.17-.19-.24.17-.2.44,0a.57.57,0,0,1,.26.48.6.6,0,0,1-.45.55.61.61,0,0,1-.68-.22.58.58,0,0,1,0-.55C288.73,284.13,289,284.15,289,284.22Z" transform="translate(-44.63 -21.48)"/>
          </g>
        </g>
        <polygon class="cls-7" points="275.02 317.99 274.76 325.46 221.29 333.27 221.53 319.65 275.02 317.99"/>
        <path class="cls-2" d="M247.33,21.48s-26.75,31.28-27.47,60.38c-.7,28.29,0,106.52,0,106.52v95.33h55V89.14s-.51-11.51-5.5-29.17C264.72,43.78,247.33,21.48,247.33,21.48Z" transform="translate(-44.63 -21.48)"/>
        <path class="cls-7" d="M274.79,106.56c0,.14-12.36.26-27.61.26s-27.61-.12-27.61-.26,12.36-.26,27.61-.26S274.79,106.42,274.79,106.56Z" transform="translate(-44.63 -21.48)"/>
        <path class="cls-7" d="M223,160.5s0,0,0,.11v.08h-.06v-.05H223v.18h-.08c-.13-2-.22-13.32-.22-26.91,0-7.52.05-14.32.07-19.34,0-2.42.07-4.4.09-5.86,0-.64,0-1.17.05-1.59a1.88,1.88,0,0,1,0-.56,2.44,2.44,0,0,1,.05.56c0,.42,0,.95.05,1.59,0,1.46,0,3.44.08,5.86,0,5,.05,11.82.08,19.34,0,13.59-.1,24.86-.22,26.91h-.08v-.18H223v.05h-.06v-.08C222.93,160.54,222.94,160.5,223,160.5Z" transform="translate(-44.63 -21.48)"/>
        <path class="cls-7" d="M226.89,160.82c-.14,0-.26-12.15-.26-27.13s.12-27.13.26-27.13.26,12.15.26,27.13S227,160.82,226.89,160.82Z" transform="translate(-44.63 -21.48)"/>
        <path class="cls-7" d="M230.94,160.82c-.14,0-.28-12.15-.31-27.13s.06-27.13.21-27.13.28,12.15.31,27.13S231.09,160.82,230.94,160.82Z" transform="translate(-44.63 -21.48)"/>
        <path class="cls-7" d="M234.78,160.82c-.15,0-.26-12.15-.26-27.13s.11-27.13.26-27.13.26,12.15.26,27.13S234.92,160.82,234.78,160.82Z" transform="translate(-44.63 -21.48)"/>
        <path class="cls-7" d="M238.72,162.08c-.14,0-.26-12.43-.26-27.76s.12-27.76.26-27.76S239,119,239,134.32,238.87,162.08,238.72,162.08Z" transform="translate(-44.63 -21.48)"/>
        <path class="cls-7" d="M242.66,162.08c-.14,0-.26-12.43-.26-27.76s.12-27.76.26-27.76.27,12.43.27,27.76S242.81,162.08,242.66,162.08Z" transform="translate(-44.63 -21.48)"/>
        <path class="cls-7" d="M246.61,162.08c-.15,0-.26-12.43-.26-27.76s.11-27.76.26-27.76.26,12.43.26,27.76S246.75,162.08,246.61,162.08Z" transform="translate(-44.63 -21.48)"/>
        <path class="cls-7" d="M250.55,162.08c-.14,0-.26-12.43-.26-27.76s.12-27.76.26-27.76.26,12.43.26,27.76S250.69,162.08,250.55,162.08Z" transform="translate(-44.63 -21.48)"/>
        <path class="cls-7" d="M254.49,162.08c-.14,0-.26-12.43-.26-27.76s.12-27.76.26-27.76.26,12.43.26,27.76S254.64,162.08,254.49,162.08Z" transform="translate(-44.63 -21.48)"/>
        <path class="cls-7" d="M258.63,160.82c-.14,0-.3-12.15-.35-27.13s0-27.13.16-27.13.3,12.15.36,27.13S258.78,160.82,258.63,160.82Z" transform="translate(-44.63 -21.48)"/>
        <path class="cls-7" d="M262.38,160.82a2.39,2.39,0,0,1-.05-.55c0-.42,0-.94-.05-1.58,0-1.45,0-3.42-.08-5.82,0-5-.05-11.72-.08-19.18s.06-14.21.08-19.18c0-2.4.06-4.37.08-5.82,0-.64,0-1.16.05-1.58a2.39,2.39,0,0,1,.05-.55,1.84,1.84,0,0,1,.05.55c0,.42,0,.94.05,1.58,0,1.45,0,3.42.08,5.82,0,5,.05,11.72.08,19.18s-.06,14.21-.08,19.18c0,2.4-.06,4.37-.08,5.82,0,.64,0,1.16-.05,1.58A1.84,1.84,0,0,1,262.38,160.82Z" transform="translate(-44.63 -21.48)"/>
        <path class="cls-7" d="M266.32,160.82c-.14,0-.26-12.15-.26-27.13s.12-27.13.26-27.13.26,12.15.26,27.13S266.47,160.82,266.32,160.82Z" transform="translate(-44.63 -21.48)"/>
        <path class="cls-7" d="M270.27,160.82c-.15,0-.26-12.15-.26-27.13s.11-27.13.26-27.13.26,12.15.26,27.13S270.41,160.82,270.27,160.82Z" transform="translate(-44.63 -21.48)"/>
        <path class="cls-7" d="M274.21,160.82c-.14,0-.26-12.15-.26-27.13s.12-27.13.26-27.13.26,12.15.26,27.13S274.35,160.82,274.21,160.82Z" transform="translate(-44.63 -21.48)"/>
        <path class="cls-7" d="M274.79,160.82c0,.14-12.32.26-27.51.26s-27.5-.12-27.5-.26,12.31-.26,27.5-.26S274.79,160.68,274.79,160.82Z" transform="translate(-44.63 -21.48)"/>
        <g>
          <path class="cls-8" d="M227.17,342.24l-52.7-1.63s2-17.34,3.68-19c2.46-2.45,44.15-45.46,44.15-45.46s7.32-92.4,7.93-95.06,12.26-36.56,12.87-37.37,1.22-2.66,4.29-2.86,4.9,3.26,4.9,3.26,11.85,37.59,12.46,40.65l9.68,93.45c.16,1.12,42.46,45,43.42,47.11s1.77,14.15,1.77,14.15L267,343.34Z" transform="translate(-44.63 -21.48)"/>
          <path class="cls-1" d="M264.72,183.61c-1.73-6.42-12.25-39.78-12.25-39.78s-1.83-3.47-4.9-3.27-3.67,2.05-4.29,2.86S231,178.14,230.42,180.8c-.06.24-.17,1.22-.33,2.81Z" transform="translate(-44.63 -21.48)"/>
          <path class="cls-1" d="M228.22,357.22l-.44-25.84,3.05-9.69-.17-78.54-.57-59.54h34.63l-.64,138.16,3.5,9.15v38.49H249.47l-.29-39.64a1.82,1.82,0,0,0-1.82-1.81h0a1.83,1.83,0,0,0-1.82,1.83l.09,39.62H228.38Z" transform="translate(-44.63 -21.48)"/>
          <g>
            <polygon class="cls-7" points="129.84 319.13 130.1 326.59 183.57 334.41 183.34 320.79 129.84 319.13"/>
            <path class="cls-7" d="M175.13,336c0-.15,11.7-.26,26.12-.26s26.12.11,26.12.26-11.69.26-26.12.26S175.13,336.09,175.13,336Z" transform="translate(-44.63 -21.48)"/>
            <path class="cls-7" d="M179.25,340.76a5.89,5.89,0,0,1-.26-2.41,5.82,5.82,0,0,1,.26-2.4,5.63,5.63,0,0,1,.26,2.4A5.69,5.69,0,0,1,179.25,340.76Z" transform="translate(-44.63 -21.48)"/>
            <path class="cls-7" d="M183.52,340.66a10.13,10.13,0,0,1,0-4.56,10.13,10.13,0,0,1,0,4.56Z" transform="translate(-44.63 -21.48)"/>
            <path class="cls-7" d="M188.38,341a12.15,12.15,0,0,1,0-5,12.15,12.15,0,0,1,0,5Z" transform="translate(-44.63 -21.48)"/>
            <path class="cls-7" d="M193.09,341.19a12.85,12.85,0,0,1,0-5.24,13.33,13.33,0,0,1,0,5.24Z" transform="translate(-44.63 -21.48)"/>
            <path class="cls-7" d="M197.5,341.33a14,14,0,0,1,0-5.38,14,14,0,0,1,0,5.38Z" transform="translate(-44.63 -21.48)"/>
            <path class="cls-7" d="M202.12,341.33a14,14,0,0,1,0-5.38,14,14,0,0,1,0,5.38Z" transform="translate(-44.63 -21.48)"/>
            <path class="cls-7" d="M206.74,341.33a14,14,0,0,1,0-5.38,14,14,0,0,1,0,5.38Z" transform="translate(-44.63 -21.48)"/>
            <path class="cls-7" d="M211.36,341.75a16.3,16.3,0,0,1,0-5.8,16.3,16.3,0,0,1,0,5.8Z" transform="translate(-44.63 -21.48)"/>
            <path class="cls-7" d="M216,341.9a17.15,17.15,0,0,1,0-5.95,17.15,17.15,0,0,1,0,5.95Z" transform="translate(-44.63 -21.48)"/>
            <path class="cls-7" d="M220.6,342.4a20.13,20.13,0,0,1,0-6.45,20.13,20.13,0,0,1,0,6.45Z" transform="translate(-44.63 -21.48)"/>
            <path class="cls-7" d="M225.22,341.33a4.15,4.15,0,0,1,.18,1.41l0,.34v.34H225l0-.82c0-.61,0-1.22,0-1.86a21.9,21.9,0,0,1,.26-4.8,22.67,22.67,0,0,1,.26,4.8c0,.64,0,1.25,0,1.86l0,.82H225v-.68A4,4,0,0,1,225.22,341.33Z" transform="translate(-44.63 -21.48)"/>
            <circle class="cls-2" cx="167.4" cy="302.91" r="6.9"/>
            <path class="cls-7" d="M177.49,333.32c0-.54,1.76-8.93,1.76-8.93l44.28-46,.65-25.84-1.88,23.56-43.64,44.64a7.26,7.26,0,0,0-1.95,3.89L175,336.1Z" transform="translate(-44.63 -21.48)"/>
          </g>
          <path class="cls-7" d="M246.82,201.51c.15,0,.26,28.26.26,63.1s-.11,63.11-.26,63.11-.26-28.25-.26-63.11S246.68,201.51,246.82,201.51Z" transform="translate(-44.63 -21.48)"/>
          <rect class="cls-6" x="199.24" y="169.78" width="2.44" height="4.3"/>
          <rect class="cls-6" x="204.72" y="169.78" width="2.44" height="4.3"/>
          <path class="cls-7" d="M237.5,180.22l3.16,3.33h13.53l3.17-3.18s-3.31-3.34-10-3.34A17.08,17.08,0,0,0,237.5,180.22Z" transform="translate(-44.63 -21.48)"/>
          <path class="cls-7" d="M264.64,200.24c0,.15-7.7.26-17.19.26s-17.2-.11-17.2-.26,7.7-.26,17.2-.26S264.64,200.1,264.64,200.24Z" transform="translate(-44.63 -21.48)"/>
          <path class="cls-7" d="M259.3,165.4c0,.14-5.2.26-11.62.26s-11.61-.12-11.61-.26,5.2-.26,11.61-.26S259.3,165.26,259.3,165.4Z" transform="translate(-44.63 -21.48)"/>
          <path class="cls-7" d="M233.19,203.16c0,.08-.13.14-.18.31s0,.31.2.33.26-.12.23-.31-.15-.25-.14-.32.25-.13.47.15a.66.66,0,0,1,.08.6.7.7,0,0,1-1.29-.07.64.64,0,0,1,.15-.59C233,203,233.21,203.1,233.19,203.16Z" transform="translate(-44.63 -21.48)"/>
          <path class="cls-7" d="M236.65,203.16c0,.08-.13.14-.18.31s0,.31.2.33.26-.12.23-.31-.15-.25-.14-.32.25-.13.47.15a.66.66,0,0,1,.08.6.68.68,0,0,1-.67.4.66.66,0,0,1-.62-.47.62.62,0,0,1,.15-.59C236.41,203,236.67,203.1,236.65,203.16Z" transform="translate(-44.63 -21.48)"/>
          <path class="cls-7" d="M240.4,203.16c0,.08-.13.14-.18.31s0,.31.2.33.26-.12.23-.31-.15-.25-.14-.32.25-.13.47.15a.66.66,0,0,1,.08.6.68.68,0,0,1-.67.4.66.66,0,0,1-.62-.47.62.62,0,0,1,.15-.59C240.16,203,240.42,203.1,240.4,203.16Z" transform="translate(-44.63 -21.48)"/>
          <path class="cls-7" d="M244.15,203.16c0,.08-.13.14-.18.31s0,.31.2.33.26-.12.23-.31-.15-.25-.14-.32.25-.13.47.15a.66.66,0,0,1,.08.6.68.68,0,0,1-.67.4.66.66,0,0,1-.62-.47.62.62,0,0,1,.15-.59C243.91,203,244.17,203.1,244.15,203.16Z" transform="translate(-44.63 -21.48)"/>
          <path class="cls-7" d="M264.09,292.4c0,.15-7.51.26-16.77.26s-16.77-.11-16.77-.26,7.5-.26,16.77-.26S264.09,292.26,264.09,292.4Z" transform="translate(-44.63 -21.48)"/>
          <path class="cls-7" d="M264.42,232.89c0,.14-7.58.26-16.93.26s-16.93-.12-16.93-.26,7.58-.26,16.93-.26S264.42,232.74,264.42,232.89Z" transform="translate(-44.63 -21.48)"/>
          <path class="cls-7" d="M264.42,265c0,.14-7.49.26-16.73.26S231,265.09,231,265s7.49-.26,16.72-.26S264.42,264.81,264.42,265Z" transform="translate(-44.63 -21.48)"/>
          <path class="cls-7" d="M245.1,331.62a74.35,74.35,0,0,1-8.72.26,74.46,74.46,0,0,1-8.73-.26,71.93,71.93,0,0,1,8.73-.26A71.82,71.82,0,0,1,245.1,331.62Z" transform="translate(-44.63 -21.48)"/>
          <path class="cls-7" d="M245.22,338.72a66,66,0,0,1-8.44.27,65.79,65.79,0,0,1-8.43-.27,69.37,69.37,0,0,1,8.43-.26A69.61,69.61,0,0,1,245.22,338.72Z" transform="translate(-44.63 -21.48)"/>
          <path class="cls-7" d="M245.57,344.8a70.91,70.91,0,0,1-8.67.26,70.91,70.91,0,0,1-8.67-.26,73.4,73.4,0,0,1,8.67-.26A73.4,73.4,0,0,1,245.57,344.8Z" transform="translate(-44.63 -21.48)"/>
          <path class="cls-7" d="M245.33,351.34a70.4,70.4,0,0,1-8.49.26,70.4,70.4,0,0,1-8.49-.26,68,68,0,0,1,8.49-.26A68,68,0,0,1,245.33,351.34Z" transform="translate(-44.63 -21.48)"/>
          <path class="cls-7" d="M245.33,357.31a70.4,70.4,0,0,1-8.49.26,70.4,70.4,0,0,1-8.49-.26,70.4,70.4,0,0,1,8.49-.26A70.4,70.4,0,0,1,245.33,357.31Z" transform="translate(-44.63 -21.48)"/>
          <path class="cls-7" d="M245.33,363.28a68,68,0,0,1-8.49.26,68,68,0,0,1-8.49-.26,70.4,70.4,0,0,1,8.49-.26A70.4,70.4,0,0,1,245.33,363.28Z" transform="translate(-44.63 -21.48)"/>
          <path class="cls-7" d="M266.83,331.62a74.46,74.46,0,0,1-8.73.26,74.21,74.21,0,0,1-8.72-.26,71.69,71.69,0,0,1,8.72-.26A71.93,71.93,0,0,1,266.83,331.62Z" transform="translate(-44.63 -21.48)"/>
          <path class="cls-7" d="M266.94,338.72a65.79,65.79,0,0,1-8.43.27,65.79,65.79,0,0,1-8.43-.27,69.37,69.37,0,0,1,8.43-.26A69.37,69.37,0,0,1,266.94,338.72Z" transform="translate(-44.63 -21.48)"/>
          <path class="cls-7" d="M267.29,344.8a70.8,70.8,0,0,1-8.66.26,70.91,70.91,0,0,1-8.67-.26,73.4,73.4,0,0,1,8.67-.26A73.29,73.29,0,0,1,267.29,344.8Z" transform="translate(-44.63 -21.48)"/>
          <path class="cls-7" d="M267.06,351.34a70.4,70.4,0,0,1-8.49.26,70.4,70.4,0,0,1-8.49-.26,68,68,0,0,1,8.49-.26A68,68,0,0,1,267.06,351.34Z" transform="translate(-44.63 -21.48)"/>
          <path class="cls-7" d="M267.06,357.31a70.4,70.4,0,0,1-8.49.26,70.4,70.4,0,0,1-8.49-.26,70.4,70.4,0,0,1,8.49-.26A70.4,70.4,0,0,1,267.06,357.31Z" transform="translate(-44.63 -21.48)"/>
          <path class="cls-7" d="M267.06,363.28a68,68,0,0,1-8.49.26,68,68,0,0,1-8.49-.26,70.4,70.4,0,0,1,8.49-.26A70.4,70.4,0,0,1,267.06,363.28Z" transform="translate(-44.63 -21.48)"/>
          <path class="cls-1" d="M230.23,181.09" transform="translate(-44.63 -21.48)"/>
          <g>
            <path class="cls-4" d="M248.82,178.93c.08.12-.86.83-2.09,1.58a7,7,0,0,1-2.37,1.14c-.08-.13.86-.83,2.09-1.58A6.79,6.79,0,0,1,248.82,178.93Z" transform="translate(-44.63 -21.48)"/>
            <path class="cls-4" d="M250.45,179.08c.12.14-.73.81-1.83,1.48a5.4,5.4,0,0,1-2.14,1c-.07-.13.77-.77,1.87-1.44A6.85,6.85,0,0,1,250.45,179.08Z" transform="translate(-44.63 -21.48)"/>
          </g>
        </g>
        <path class="cls-7" d="M230.19,181.5c.15,0,.37,31.3.51,69.9s.12,69.92,0,69.92-.37-31.29-.5-69.91S230.05,181.5,230.19,181.5Z" transform="translate(-44.63 -21.48)"/>
        <path class="cls-7" d="M264.09,321c-.15,0-.12-29.44.05-65.75s.43-65.75.58-65.75.12,29.43-.06,65.75S264.23,321,264.09,321Z" transform="translate(-44.63 -21.48)"/>
        <path class="cls-7" d="M319,336.05c0,.14-11.69.26-26.12.26s-26.12-.12-26.12-.26,11.69-.26,26.12-.26S319,335.9,319,336.05Z" transform="translate(-44.63 -21.48)"/>
        <path class="cls-7" d="M314.87,340.86a5.89,5.89,0,0,1-.26-2.41,5.82,5.82,0,0,1,.26-2.4,5.82,5.82,0,0,1,.26,2.4A5.89,5.89,0,0,1,314.87,340.86Z" transform="translate(-44.63 -21.48)"/>
        <path class="cls-7" d="M310.6,340.76a5.28,5.28,0,0,1-.26-2.28,5.35,5.35,0,0,1,.26-2.29,5.17,5.17,0,0,1,.26,2.29A5.11,5.11,0,0,1,310.6,340.76Z" transform="translate(-44.63 -21.48)"/>
        <path class="cls-7" d="M305.75,341.05a12.15,12.15,0,0,1,0-5,12.15,12.15,0,0,1,0,5Z" transform="translate(-44.63 -21.48)"/>
        <path class="cls-7" d="M301,341.29a13.33,13.33,0,0,1,0-5.24,13.33,13.33,0,0,1,0,5.24Z" transform="translate(-44.63 -21.48)"/>
        <path class="cls-7" d="M296.62,341.43a14,14,0,0,1,0-5.38,14,14,0,0,1,0,5.38Z" transform="translate(-44.63 -21.48)"/>
        <path class="cls-7" d="M292,341.43a14,14,0,0,1,0-5.38,14,14,0,0,1,0,5.38Z" transform="translate(-44.63 -21.48)"/>
        <path class="cls-7" d="M287.38,341.43a14,14,0,0,1,0-5.38,14,14,0,0,1,0,5.38Z" transform="translate(-44.63 -21.48)"/>
        <path class="cls-7" d="M282.76,342.5a20.13,20.13,0,0,1,0-6.45,20.13,20.13,0,0,1,0,6.45Z" transform="translate(-44.63 -21.48)"/>
        <path class="cls-7" d="M278.14,342.88a22.56,22.56,0,0,1,0-6.83,22.56,22.56,0,0,1,0,6.83Z" transform="translate(-44.63 -21.48)"/>
        <path class="cls-7" d="M272.62,343.34a25.68,25.68,0,0,1,0-7.29,25.68,25.68,0,0,1,0,7.29Z" transform="translate(-44.63 -21.48)"/>
        <path class="cls-7" d="M316.73,332l-.79-6.19-43.45-46L272,254.78l2.5,23.57L316.39,323a7.12,7.12,0,0,1,1.95,3.89l.92,7.48Z" transform="translate(-44.63 -21.48)"/>
        <rect class="cls-2" x="227.38" y="302.91" width="20" height="5.39"/>
        <path class="cls-7" d="M247.33,21.48c.14,0,.29,18.9.32,42.21s-.05,42.21-.19,42.21-.29-18.9-.33-42.21S247.19,21.48,247.33,21.48Z" transform="translate(-44.63 -21.48)"/>
        <path class="cls-7" d="M249.27,100.83c0-.06.25-.21.6,0a.8.8,0,0,1,.31.66.85.85,0,0,1-1.48.46.79.79,0,0,1-.12-.72c.13-.41.45-.45.46-.38s-.11.2-.1.45.17.51.49.4a.37.37,0,0,0,.18-.61C249.47,100.93,249.28,100.9,249.27,100.83Z" transform="translate(-44.63 -21.48)"/>
        <path class="cls-7" d="M249.27,86.68c0-.06.25-.21.6,0a.84.84,0,0,1,.31.66.85.85,0,0,1-1.48.47.79.79,0,0,1-.12-.72c.13-.41.45-.45.46-.38s-.11.2-.1.45.17.5.49.4a.37.37,0,0,0,.18-.61C249.47,86.78,249.28,86.75,249.27,86.68Z" transform="translate(-44.63 -21.48)"/>
        <path class="cls-7" d="M249.27,72.52c0-.06.25-.21.6,0a.8.8,0,0,1,.31.66.82.82,0,0,1-.59.71.77.77,0,0,1-1-1c.13-.4.45-.44.46-.38s-.11.21-.1.45.17.51.49.41.33-.4.18-.62S249.28,72.6,249.27,72.52Z" transform="translate(-44.63 -21.48)"/>
        <path class="cls-7" d="M249.27,58.37c0-.06.25-.21.6.05a.8.8,0,0,1,.31.66.82.82,0,0,1-.59.71.81.81,0,0,1-.89-.25.79.79,0,0,1-.12-.72c.13-.41.45-.44.46-.38s-.11.2-.1.45.17.51.49.4a.37.37,0,0,0,.18-.61C249.47,58.47,249.28,58.44,249.27,58.37Z" transform="translate(-44.63 -21.48)"/>
        <path class="cls-7" d="M249.27,44.22c0-.06.25-.21.6,0a.84.84,0,0,1,.31.67.85.85,0,0,1-1.48.46.79.79,0,0,1-.12-.72c.13-.41.45-.45.46-.38s-.11.2-.1.45.17.5.49.4a.37.37,0,0,0,.18-.61C249.47,44.32,249.28,44.29,249.27,44.22Z" transform="translate(-44.63 -21.48)"/>
        <path class="cls-7" d="M249.27,30.06s.25-.2.6.05a.82.82,0,0,1,.31.66.84.84,0,0,1-.59.72.82.82,0,0,1-.89-.25.79.79,0,0,1-.12-.72c.13-.41.45-.45.46-.38s-.11.2-.1.45.17.5.49.4.33-.4.18-.62S249.28,30.14,249.27,30.06Z" transform="translate(-44.63 -21.48)"/>
        <path class="cls-4" d="M234.05,45.6a10.89,10.89,0,0,1-.81,1.5c-.56.94-1.32,2.33-2.21,4.07s-1.88,3.85-2.87,6.24-1.91,5.08-2.74,7.94S224,71,223.55,73.54s-.72,4.86-.87,6.81-.25,3.54-.27,4.63a12.36,12.36,0,0,1-.11,1.7,10,10,0,0,1-.1-1.7c0-1.1,0-2.69.11-4.65a68.59,68.59,0,0,1,.77-6.87,77.08,77.08,0,0,1,1.84-8.25,76.07,76.07,0,0,1,2.8-8,68.74,68.74,0,0,1,3-6.23c.94-1.73,1.76-3.09,2.37-4A9.77,9.77,0,0,1,234.05,45.6Z" transform="translate(-44.63 -21.48)"/>
        <path class="cls-4" d="M238.7,37.36c.12.07-.18.88-.69,1.81s-1,1.63-1.15,1.56.18-.88.69-1.81S238.57,37.29,238.7,37.36Z" transform="translate(-44.63 -21.48)"/>
        <path class="cls-4" d="M224.3,158.68c-.14,0-.26-11.11-.26-24.82s.12-24.81.26-24.81.26,11.11.26,24.81S224.44,158.68,224.3,158.68Z" transform="translate(-44.63 -21.48)"/>
        <path class="cls-4" d="M228,143.05a53.16,53.16,0,0,1-.26-7.5A53.25,53.25,0,0,1,228,128a55.12,55.12,0,0,1,.26,7.51A55,55,0,0,1,228,143.05Z" transform="translate(-44.63 -21.48)"/>
        <path class="cls-4" d="M232.27,137.85a7.29,7.29,0,0,1-.27-2.76,7.29,7.29,0,0,1,.27-2.76,14.78,14.78,0,0,1,0,5.52Z" transform="translate(-44.63 -21.48)"/>
        <path class="cls-4" d="M222.16,225.46c-.15,0-.27-13.1-.27-29.25S222,167,222.16,167s.26,13.1.26,29.26S222.3,225.46,222.16,225.46Z" transform="translate(-44.63 -21.48)"/>
        <path class="cls-9" d="M249.57,178.86" transform="translate(-44.63 -21.48)"/>
      </g>
    </g>
  </g>
  <g id="Structure">
    <g>
      <rect class="cls-7" x="329.51" y="207.24" width="4.12" height="255.19"/>
      <rect class="cls-7" x="373.27" y="207.05" width="4.12" height="255.08"/>
      <rect class="cls-7" x="329.51" y="207.24" width="46.28" height="3.19"/>
      <rect class="cls-7" x="329.51" y="263.42" width="47.88" height="3.19"/>
      <rect class="cls-7" x="329.51" y="389.73" width="47.43" height="3.19"/>
      <rect class="cls-7" x="361.16" y="382.17" width="75.07" height="3.19" transform="translate(-190.95 458.12) rotate(-53.88)"/>
      <rect class="cls-7" x="358.61" y="319.45" width="78.94" height="3.19" transform="translate(-136.39 446.5) rotate(-55.58)"/>
      <rect class="cls-7" x="358.61" y="445.85" width="78.94" height="3.19" transform="translate(-240.66 501.45) rotate(-55.58)"/>
      <rect class="cls-7" x="364.33" y="256.49" width="68.82" height="3.19" transform="translate(-99.58 377.19) rotate(-50.13)"/>
      <rect class="cls-7" x="329.51" y="329.83" width="47.88" height="3.19"/>
      <path class="cls-7" d="M394.62,483.66c-.14,0-.26-56.7-.26-126.62s.12-126.64.26-126.64.26,56.69.26,126.64S394.77,483.66,394.62,483.66Z" transform="translate(-44.63 -21.48)"/>
      <path class="cls-7" d="M396.46,483.61c-.14,0-.26-56.28-.26-125.68s.12-125.69.26-125.69.26,56.26.26,125.69S396.61,483.61,396.46,483.61Z" transform="translate(-44.63 -21.48)"/>
      <g>
        <path class="cls-7" d="M405.25,483.73c-.15,0-.26-56.3-.26-125.74s.11-125.75.26-125.75.26,56.29.26,125.75S405.39,483.73,405.25,483.73Z" transform="translate(-44.63 -21.48)"/>
        <path class="cls-7" d="M411.83,483.61c-.14,0-.26-56.28-.26-125.68s.12-125.69.26-125.69.26,56.26.26,125.69S412,483.61,411.83,483.61Z" transform="translate(-44.63 -21.48)"/>
        <path class="cls-7" d="M411.83,251.88a20.82,20.82,0,0,1-6.56,0,20.82,20.82,0,0,1,6.56,0Z" transform="translate(-44.63 -21.48)"/>
        <path class="cls-7" d="M411.83,246.37a20.82,20.82,0,0,1-6.56,0,20.82,20.82,0,0,1,6.56,0Z" transform="translate(-44.63 -21.48)"/>
        <path class="cls-7" d="M411.83,240.86a20.82,20.82,0,0,1-6.56,0,20.82,20.82,0,0,1,6.56,0Z" transform="translate(-44.63 -21.48)"/>
        <path class="cls-7" d="M411.83,235.35a20.82,20.82,0,0,1-6.56,0,20.82,20.82,0,0,1,6.56,0Z" transform="translate(-44.63 -21.48)"/>
        <path class="cls-7" d="M411.83,258.09a20.82,20.82,0,0,1-6.56,0,20.82,20.82,0,0,1,6.56,0Z" transform="translate(-44.63 -21.48)"/>
        <path class="cls-7" d="M411.83,264.3a20.82,20.82,0,0,1-6.56,0,20.82,20.82,0,0,1,6.56,0Z" transform="translate(-44.63 -21.48)"/>
        <path class="cls-7" d="M411.83,270.51a20.82,20.82,0,0,1-6.56,0,20.82,20.82,0,0,1,6.56,0Z" transform="translate(-44.63 -21.48)"/>
        <path class="cls-7" d="M411.83,276.72a20.82,20.82,0,0,1-6.56,0,20.06,20.06,0,0,1,6.56,0Z" transform="translate(-44.63 -21.48)"/>
        <path class="cls-7" d="M411.83,282.92a20.06,20.06,0,0,1-6.56,0,20.82,20.82,0,0,1,6.56,0Z" transform="translate(-44.63 -21.48)"/>
        <path class="cls-7" d="M411.83,289.13a20.82,20.82,0,0,1-6.56,0,20.82,20.82,0,0,1,6.56,0Z" transform="translate(-44.63 -21.48)"/>
        <path class="cls-7" d="M411.83,295.34a20.82,20.82,0,0,1-6.56,0,20.82,20.82,0,0,1,6.56,0Z" transform="translate(-44.63 -21.48)"/>
        <path class="cls-7" d="M411.83,301.55a20.82,20.82,0,0,1-6.56,0,20.82,20.82,0,0,1,6.56,0Z" transform="translate(-44.63 -21.48)"/>
        <path class="cls-7" d="M411.83,307.76a20.82,20.82,0,0,1-6.56,0,20.82,20.82,0,0,1,6.56,0Z" transform="translate(-44.63 -21.48)"/>
        <path class="cls-7" d="M411.83,314a20.82,20.82,0,0,1-6.56,0,20.82,20.82,0,0,1,6.56,0Z" transform="translate(-44.63 -21.48)"/>
        <path class="cls-7" d="M411.83,320.18a20.82,20.82,0,0,1-6.56,0,20.82,20.82,0,0,1,6.56,0Z" transform="translate(-44.63 -21.48)"/>
        <path class="cls-7" d="M411.83,326.39a20.82,20.82,0,0,1-6.56,0,20.82,20.82,0,0,1,6.56,0Z" transform="translate(-44.63 -21.48)"/>
        <path class="cls-7" d="M411.83,332.6a20.82,20.82,0,0,1-6.56,0,20.82,20.82,0,0,1,6.56,0Z" transform="translate(-44.63 -21.48)"/>
        <path class="cls-7" d="M411.83,338.81a20.82,20.82,0,0,1-6.56,0,20.82,20.82,0,0,1,6.56,0Z" transform="translate(-44.63 -21.48)"/>
        <path class="cls-7" d="M411.83,345a20.82,20.82,0,0,1-6.56,0,20.82,20.82,0,0,1,6.56,0Z" transform="translate(-44.63 -21.48)"/>
        <path class="cls-7" d="M411.83,351.23a20.82,20.82,0,0,1-6.56,0,20.82,20.82,0,0,1,6.56,0Z" transform="translate(-44.63 -21.48)"/>
        <path class="cls-7" d="M411.83,357.44a20.82,20.82,0,0,1-6.56,0,20.82,20.82,0,0,1,6.56,0Z" transform="translate(-44.63 -21.48)"/>
        <path class="cls-7" d="M411.83,363.65a20.82,20.82,0,0,1-6.56,0,20.82,20.82,0,0,1,6.56,0Z" transform="translate(-44.63 -21.48)"/>
        <path class="cls-7" d="M411.83,369.86a20.82,20.82,0,0,1-6.56,0,20.82,20.82,0,0,1,6.56,0Z" transform="translate(-44.63 -21.48)"/>
        <path class="cls-7" d="M411.83,376.07a20.82,20.82,0,0,1-6.56,0,20.82,20.82,0,0,1,6.56,0Z" transform="translate(-44.63 -21.48)"/>
        <path class="cls-7" d="M411.83,382.28a20.82,20.82,0,0,1-6.56,0,20.82,20.82,0,0,1,6.56,0Z" transform="translate(-44.63 -21.48)"/>
        <path class="cls-7" d="M411.83,388.49a20.82,20.82,0,0,1-6.56,0,20.82,20.82,0,0,1,6.56,0Z" transform="translate(-44.63 -21.48)"/>
        <path class="cls-7" d="M411.83,394.7a20.82,20.82,0,0,1-6.56,0,20.82,20.82,0,0,1,6.56,0Z" transform="translate(-44.63 -21.48)"/>
        <path class="cls-7" d="M411.83,400.91a20.82,20.82,0,0,1-6.56,0,20.82,20.82,0,0,1,6.56,0Z" transform="translate(-44.63 -21.48)"/>
        <path class="cls-7" d="M411.83,407.12a20.82,20.82,0,0,1-6.56,0,20.82,20.82,0,0,1,6.56,0Z" transform="translate(-44.63 -21.48)"/>
        <path class="cls-7" d="M411.83,413.33a20.82,20.82,0,0,1-6.56,0,20.82,20.82,0,0,1,6.56,0Z" transform="translate(-44.63 -21.48)"/>
        <path class="cls-7" d="M411.83,419.54a20.82,20.82,0,0,1-6.56,0,20.82,20.82,0,0,1,6.56,0Z" transform="translate(-44.63 -21.48)"/>
        <path class="cls-7" d="M411.83,425.75a20.82,20.82,0,0,1-6.56,0,20.82,20.82,0,0,1,6.56,0Z" transform="translate(-44.63 -21.48)"/>
        <path class="cls-7" d="M411.83,432a20.82,20.82,0,0,1-6.56,0,20.06,20.06,0,0,1,6.56,0Z" transform="translate(-44.63 -21.48)"/>
        <path class="cls-7" d="M411.83,438.16a20.06,20.06,0,0,1-6.56,0,20.82,20.82,0,0,1,6.56,0Z" transform="translate(-44.63 -21.48)"/>
        <path class="cls-7" d="M411.83,444.37a20.82,20.82,0,0,1-6.56,0,20.82,20.82,0,0,1,6.56,0Z" transform="translate(-44.63 -21.48)"/>
        <path class="cls-7" d="M411.83,450.58a20.82,20.82,0,0,1-6.56,0,20.82,20.82,0,0,1,6.56,0Z" transform="translate(-44.63 -21.48)"/>
        <path class="cls-7" d="M411.83,456.79a20.82,20.82,0,0,1-6.56,0,20.82,20.82,0,0,1,6.56,0Z" transform="translate(-44.63 -21.48)"/>
        <path class="cls-7" d="M411.83,463a20.82,20.82,0,0,1-6.56,0,20.82,20.82,0,0,1,6.56,0Z" transform="translate(-44.63 -21.48)"/>
        <path class="cls-7" d="M411.83,469.21a20.82,20.82,0,0,1-6.56,0,20.82,20.82,0,0,1,6.56,0Z" transform="translate(-44.63 -21.48)"/>
        <path class="cls-7" d="M411.83,475.42a20.82,20.82,0,0,1-6.56,0,20.82,20.82,0,0,1,6.56,0Z" transform="translate(-44.63 -21.48)"/>
        <path class="cls-7" d="M411.83,481.63a20.82,20.82,0,0,1-6.56,0,20.82,20.82,0,0,1,6.56,0Z" transform="translate(-44.63 -21.48)"/>
      </g>
      <g>
        <path class="cls-7" d="M376.2,357.58a1.2,1.2,0,0,1-.31,0l-.9,0-3.49.05-12.89.08-43,.08.26-.26v8.94l-.26-.26,43,.08,12.89.09,3.49,0,.9,0,.31,0a1.2,1.2,0,0,1-.31,0l-.9,0-3.49.05-12.89.08-43,.08h-.26v-9.46h.26l43,.08,12.89.08,3.49,0,.9,0A1.2,1.2,0,0,1,376.2,357.58Z" transform="translate(-44.63 -21.48)"/>
        <path class="cls-7" d="M374.23,366l-.16-.12-.45-.41-1.72-1.61-6.41-6.12.25-.12c.13,2.5.28,5.34.45,8.48l0,.47-.35-.33-8.76-8.45.37-.16c0,2.72-.08,5.57-.12,8.53v.55l-.4-.38-8.8-8.52.43-.17c-.05,2.65-.11,5.47-.16,8.34v.59l-.43-.41-4.17-4-4.44-4.3.44-.19v9l-.43-.4-8.91-8.39.4-.17c0,3.12,0,6.1,0,8.93v.54l-.38-.38-8.9-9,.31-.13c0,3.31,0,6.19,0,8.67v.44l-.25-.36c-1.92-2.76-3.42-4.94-4.47-6.45l-1.15-1.7-.29-.44-.09-.16s0,0,.12.13l.32.43,1.22,1.66,4.56,6.37-.25.08c0-2.48,0-5.36,0-8.67v-.44l.31.31,9,8.9-.38.16c0-2.83,0-5.81,0-8.93V357l.4.38,8.93,8.35-.43.19q0-4.09,0-8.37V357l.44.42,4.45,4.31,4.16,4-.44.18c.06-2.86.12-5.68.17-8.33V357l.42.41,8.79,8.53-.41.17c.05-3,.11-5.81.16-8.52v-.52l.37.36,8.71,8.5-.31.14c-.14-3.13-.26-6-.37-8.47l0-.38.27.26,6.31,6.22,1.67,1.67.42.44C374.19,365.9,374.24,366,374.23,366Z" transform="translate(-44.63 -21.48)"/>
      </g>
      <g>
        <path class="cls-7" d="M377.17,288.1l-.31,0-.91,0-3.49.05-12.88.08-43,.08.26-.26V297l-.26-.26,43,.08,12.89.08L376,297l.91,0a1.09,1.09,0,0,1,.31,0l-.31,0-.91,0-3.48.05-12.89.08-43,.08h-.26v-9.46h.26l43,.08,12.88.08,3.49.05.91,0A1.3,1.3,0,0,1,377.17,288.1Z" transform="translate(-44.63 -21.48)"/>
        <path class="cls-7" d="M375.2,296.47s-.06,0-.16-.13l-.45-.4-1.72-1.61-6.41-6.12.25-.12c.13,2.5.28,5.34.45,8.48l0,.47-.34-.33-8.77-8.45.38-.16c0,2.72-.08,5.57-.12,8.53v.55l-.4-.38c-2.78-2.7-5.74-5.55-8.81-8.52l.44-.18c-.06,2.66-.11,5.48-.17,8.34v.6l-.43-.41-4.16-4-4.44-4.3.44-.19v9l-.42-.41-8.91-8.38.4-.17q0,4.68,0,8.93v.53l-.37-.37-8.9-9,.31-.13c0,3.3,0,6.18,0,8.67v.44l-.25-.36-4.46-6.45c-.49-.72-.88-1.29-1.15-1.7l-.29-.44c-.07-.1-.1-.16-.09-.16s0,0,.12.13.19.25.32.42l1.21,1.67,4.57,6.37-.25.08c0-2.49,0-5.37-.05-8.67v-.44l.31.31,9,8.9-.38.16q0-4.25,0-8.93v-.55l.41.38,8.92,8.35-.42.19q0-4.1,0-8.37v-.61l.44.42,4.44,4.31,4.16,4-.44.18c.06-2.86.12-5.68.18-8.34v-.58l.42.41,8.78,8.53-.4.17c0-3,.1-5.81.15-8.52v-.52l.37.36,8.72,8.5-.32.14c-.13-3.13-.26-6-.37-8.47v-.38l.26.26,6.32,6.22,1.66,1.67.42.43A1.21,1.21,0,0,1,375.2,296.47Z" transform="translate(-44.63 -21.48)"/>
      </g>
    </g>
  </g>
</svg>
